<?xml version="1.0" encoding="utf-8" standalone="no"?>
<!DOCTYPE svg PUBLIC "-//W3C//DTD SVG 1.1//EN"
  "http://www.w3.org/Graphics/SVG/1.1/DTD/svg11.dtd">
<svg xmlns:xlink="http://www.w3.org/1999/xlink" width="687.1044pt" height="318.289852pt" viewBox="0 0 687.1044 318.289852" xmlns="http://www.w3.org/2000/svg" version="1.1">
 <metadata>
  <rdf:RDF xmlns:dc="http://purl.org/dc/elements/1.1/" xmlns:cc="http://creativecommons.org/ns#" xmlns:rdf="http://www.w3.org/1999/02/22-rdf-syntax-ns#">
   <cc:Work>
    <dc:type rdf:resource="http://purl.org/dc/dcmitype/StillImage"/>
    <dc:date>2023-06-01T11:29:02.937289</dc:date>
    <dc:format>image/svg+xml</dc:format>
    <dc:creator>
     <cc:Agent>
      <dc:title>Matplotlib v3.7.0, https://matplotlib.org/</dc:title>
     </cc:Agent>
    </dc:creator>
   </cc:Work>
  </rdf:RDF>
 </metadata>
 <defs>
  <style type="text/css">*{stroke-linejoin: round; stroke-linecap: butt}</style>
 </defs>
 <g id="figure_1">
  <g id="patch_1">
   <path d="M 0 318.289852 
L 687.1044 318.289852 
L 687.1044 -0 
L 0 -0 
L 0 318.289852 
z
" style="fill: none"/>
  </g>
  <g id="axes_1">
   <g id="patch_2">
    <path d="M 75.6525 225.6336 
L 405.4305 225.6336 
L 405.4305 7.2 
L 75.6525 7.2 
L 75.6525 225.6336 
z
" style="fill: none"/>
   </g>
   <g id="matplotlib.axis_1">
    <g id="xtick_1">
     <g id="line2d_1">
      <defs>
       <path id="m6c21865cd2" d="M 0 0 
L 0 -3.5 
" style="stroke: #000000; stroke-width: 2.83465"/>
      </defs>
      <g>
       <use xlink:href="#m6c21865cd2" x="90.642409" y="225.6336" style="stroke: #000000; stroke-width: 2.83465"/>
      </g>
     </g>
     <g id="text_1">
      <!-- −10 -->
      <g transform="translate(66.757534 248.495764) scale(0.2835 -0.2835)">
       <defs>
        <path id="STIXGeneral-Regular-2212" d="M 3974 1408 
L 410 1408 
L 410 1830 
L 3974 1830 
L 3974 1408 
z
" transform="scale(0.015625)"/>
        <path id="STIXGeneral-Regular-31" d="M 2522 0 
L 755 0 
L 755 96 
Q 1107 115 1235 227 
Q 1363 339 1363 608 
L 1363 3482 
Q 1363 3795 1171 3795 
Q 1082 3795 883 3718 
L 710 3654 
L 710 3744 
L 1856 4326 
L 1914 4307 
L 1914 486 
Q 1914 275 2042 185 
Q 2170 96 2522 96 
L 2522 0 
z
" transform="scale(0.015625)"/>
        <path id="STIXGeneral-Regular-30" d="M 3046 2112 
Q 3046 1683 2963 1302 
Q 2880 922 2717 602 
Q 2554 282 2266 96 
Q 1978 -90 1600 -90 
Q 1210 -90 915 108 
Q 621 307 461 640 
Q 301 973 227 1350 
Q 154 1728 154 2150 
Q 154 2746 301 3222 
Q 448 3699 790 4012 
Q 1133 4326 1626 4326 
Q 2253 4326 2649 3712 
Q 3046 3098 3046 2112 
z
M 2432 2080 
Q 2432 3091 2217 3625 
Q 2003 4160 1587 4160 
Q 1190 4160 979 3622 
Q 768 3085 768 2106 
Q 768 1120 979 598 
Q 1190 77 1600 77 
Q 2003 77 2217 598 
Q 2432 1120 2432 2080 
z
" transform="scale(0.015625)"/>
       </defs>
       <use xlink:href="#STIXGeneral-Regular-2212"/>
       <use xlink:href="#STIXGeneral-Regular-31" x="68.499985"/>
       <use xlink:href="#STIXGeneral-Regular-30" x="118.499969"/>
      </g>
     </g>
    </g>
    <g id="xtick_2">
     <g id="line2d_2">
      <g>
       <use xlink:href="#m6c21865cd2" x="290.507864" y="225.6336" style="stroke: #000000; stroke-width: 2.83465"/>
      </g>
     </g>
     <g id="text_2">
      <!-- 0 -->
      <g transform="translate(283.420364 248.495764) scale(0.2835 -0.2835)">
       <use xlink:href="#STIXGeneral-Regular-30"/>
      </g>
     </g>
    </g>
    <g id="text_3">
     <!-- Binding energy -->
     <g transform="translate(152.740664 278.010764) scale(0.2835 -0.2835)">
      <defs>
       <path id="STIXGeneral-Regular-42" d="M 2701 2234 
L 2701 2227 
Q 3181 2150 3482 1875 
Q 3795 1594 3795 1139 
Q 3795 608 3379 304 
Q 2963 0 2266 0 
L 109 0 
L 109 122 
Q 486 134 604 246 
Q 723 358 723 723 
L 723 3520 
Q 723 3891 614 3990 
Q 506 4090 109 4115 
L 109 4237 
L 1901 4237 
Q 2726 4237 3152 3958 
Q 3578 3680 3578 3168 
Q 3578 2733 3315 2502 
Q 3130 2342 2701 2234 
z
M 1376 2342 
L 1965 2342 
Q 2925 2342 2925 3136 
Q 2925 3546 2640 3773 
Q 2355 4000 1792 4000 
L 1530 4000 
Q 1376 4000 1376 3795 
L 1376 2342 
z
M 1376 2086 
L 1376 525 
Q 1376 365 1462 301 
Q 1549 237 1773 237 
Q 2208 237 2413 285 
Q 2618 333 2816 512 
Q 3059 723 3059 1146 
Q 3059 1632 2758 1830 
Q 2688 1882 2617 1917 
Q 2547 1952 2492 1974 
Q 2438 1997 2348 2016 
Q 2259 2035 2211 2044 
Q 2163 2054 2041 2060 
Q 1920 2067 1862 2070 
Q 1805 2074 1635 2080 
Q 1466 2086 1376 2086 
z
" transform="scale(0.015625)"/>
       <path id="STIXGeneral-Regular-69" d="M 1152 4045 
Q 1152 3904 1056 3811 
Q 960 3718 819 3718 
Q 685 3718 592 3811 
Q 499 3904 499 4045 
Q 499 4179 595 4275 
Q 691 4371 826 4371 
Q 966 4371 1059 4275 
Q 1152 4179 1152 4045 
z
M 1619 0 
L 102 0 
L 102 96 
Q 435 115 521 211 
Q 608 307 608 666 
L 608 2118 
Q 608 2342 563 2432 
Q 518 2522 397 2522 
Q 243 2522 128 2490 
L 128 2592 
L 1120 2944 
L 1146 2918 
L 1146 672 
Q 1146 314 1226 218 
Q 1306 122 1619 96 
L 1619 0 
z
" transform="scale(0.015625)"/>
       <path id="STIXGeneral-Regular-6e" d="M 3104 0 
L 1773 0 
L 1779 96 
Q 2016 115 2096 233 
Q 2176 352 2176 672 
L 2176 1946 
Q 2176 2592 1709 2592 
Q 1549 2592 1408 2515 
Q 1267 2438 1050 2227 
L 1050 461 
Q 1050 269 1136 192 
Q 1222 115 1466 96 
L 1466 0 
L 115 0 
L 115 96 
Q 358 115 435 214 
Q 512 314 512 602 
L 512 2157 
Q 512 2394 467 2483 
Q 422 2573 288 2573 
Q 160 2573 102 2547 
L 102 2656 
Q 550 2784 979 2944 
L 1030 2925 
L 1030 2426 
L 1037 2426 
Q 1491 2944 1958 2944 
Q 2323 2944 2518 2688 
Q 2714 2432 2714 1958 
L 2714 544 
Q 2714 288 2790 205 
Q 2867 122 3104 96 
L 3104 0 
z
" transform="scale(0.015625)"/>
       <path id="STIXGeneral-Regular-64" d="M 3142 269 
L 2202 -64 
L 2176 -45 
L 2176 365 
Q 1869 -64 1357 -64 
Q 826 -64 499 317 
Q 173 698 173 1312 
Q 173 1990 563 2467 
Q 954 2944 1504 2944 
Q 1850 2944 2176 2669 
L 2176 3667 
Q 2176 3866 2118 3930 
Q 2061 3994 1882 3994 
Q 1792 3994 1741 3987 
L 1741 4090 
Q 2323 4243 2682 4371 
L 2714 4358 
L 2714 730 
Q 2714 506 2768 435 
Q 2822 365 2995 365 
Q 3034 365 3142 371 
L 3142 269 
z
M 2176 653 
L 2176 2125 
Q 2176 2381 1981 2573 
Q 1786 2765 1523 2765 
Q 1158 2765 940 2438 
Q 723 2112 723 1568 
Q 723 979 963 624 
Q 1203 269 1606 269 
Q 1907 269 2080 474 
Q 2176 582 2176 653 
z
" transform="scale(0.015625)"/>
       <path id="STIXGeneral-Regular-67" d="M 3008 2483 
L 2477 2483 
Q 2598 2208 2598 1946 
Q 2598 1453 2265 1203 
Q 1933 954 1600 954 
Q 1530 954 1357 973 
L 1235 986 
Q 1107 947 979 812 
Q 851 678 851 582 
Q 851 435 1350 410 
L 2176 371 
Q 2528 358 2739 172 
Q 2950 -13 2950 -314 
Q 2950 -685 2566 -986 
Q 2035 -1395 1286 -1395 
Q 826 -1395 502 -1212 
Q 179 -1030 179 -774 
Q 179 -595 320 -419 
Q 461 -243 806 6 
Q 602 102 534 172 
Q 467 243 467 346 
Q 467 531 762 787 
Q 909 915 1037 1043 
Q 717 1203 579 1401 
Q 442 1600 442 1901 
Q 442 2336 752 2640 
Q 1062 2944 1510 2944 
Q 1766 2944 2022 2848 
L 2163 2797 
Q 2349 2733 2515 2733 
L 3008 2733 
L 3008 2483 
z
M 973 2163 
L 973 2144 
Q 973 1683 1155 1398 
Q 1338 1114 1632 1114 
Q 1850 1114 1978 1270 
Q 2106 1427 2106 1690 
Q 2106 2112 1914 2464 
Q 1754 2765 1446 2765 
Q 1222 2765 1097 2605 
Q 973 2445 973 2163 
z
M 2771 -410 
Q 2771 -230 2595 -163 
Q 2419 -96 1978 -96 
Q 1344 -96 941 -13 
Q 749 -243 688 -348 
Q 627 -454 627 -563 
Q 627 -774 880 -902 
Q 1133 -1030 1555 -1030 
Q 2099 -1030 2435 -860 
Q 2771 -691 2771 -410 
z
" transform="scale(0.015625)"/>
       <path id="STIXGeneral-Regular-20" transform="scale(0.015625)"/>
       <path id="STIXGeneral-Regular-65" d="M 2611 1050 
L 2714 1005 
Q 2330 -64 1376 -64 
Q 813 -64 486 329 
Q 160 723 160 1389 
Q 160 2074 525 2509 
Q 890 2944 1485 2944 
Q 2061 2944 2374 2502 
Q 2560 2246 2592 1773 
L 621 1773 
Q 646 1370 700 1158 
Q 755 947 915 730 
Q 1184 378 1626 378 
Q 1939 378 2153 531 
Q 2368 685 2611 1050 
z
M 634 1978 
L 1939 1978 
Q 1882 2381 1750 2547 
Q 1619 2714 1312 2714 
Q 1043 2714 864 2525 
Q 685 2336 634 1978 
z
" transform="scale(0.015625)"/>
       <path id="STIXGeneral-Regular-72" d="M 1024 2931 
L 1024 2342 
Q 1267 2688 1430 2816 
Q 1594 2944 1792 2944 
Q 1958 2944 2051 2854 
Q 2144 2765 2144 2605 
Q 2144 2470 2077 2393 
Q 2010 2317 1894 2317 
Q 1773 2317 1638 2445 
Q 1536 2541 1472 2541 
Q 1338 2541 1181 2355 
Q 1024 2170 1024 2016 
L 1024 576 
Q 1024 301 1133 205 
Q 1242 109 1568 96 
L 1568 0 
L 32 0 
L 32 96 
Q 339 154 412 224 
Q 486 294 486 538 
L 486 2138 
Q 486 2349 438 2435 
Q 390 2522 269 2522 
Q 166 2522 45 2496 
L 45 2598 
Q 448 2726 992 2944 
L 1024 2931 
z
" transform="scale(0.015625)"/>
       <path id="STIXGeneral-Regular-79" d="M 3040 2880 
L 3040 2784 
Q 2925 2771 2854 2700 
Q 2784 2630 2720 2458 
L 1760 -160 
Q 1510 -838 1257 -1116 
Q 1005 -1395 640 -1395 
Q 435 -1395 313 -1289 
Q 192 -1184 192 -1024 
Q 192 -902 272 -816 
Q 352 -730 467 -730 
Q 653 -730 800 -813 
Q 883 -858 966 -858 
Q 1101 -858 1286 -576 
Q 1376 -448 1459 -211 
Q 1542 26 1542 115 
Q 1542 198 1274 762 
L 429 2566 
Q 346 2752 90 2790 
L 90 2880 
L 1402 2880 
L 1402 2784 
Q 1197 2778 1117 2739 
Q 1037 2701 1037 2611 
Q 1037 2541 1120 2349 
L 1837 749 
L 2458 2515 
Q 2483 2573 2483 2630 
Q 2483 2784 2189 2784 
L 2189 2880 
L 3040 2880 
z
" transform="scale(0.015625)"/>
      </defs>
      <use xlink:href="#STIXGeneral-Regular-42"/>
      <use xlink:href="#STIXGeneral-Regular-69" x="66.699997"/>
      <use xlink:href="#STIXGeneral-Regular-6e" x="94.499985"/>
      <use xlink:href="#STIXGeneral-Regular-64" x="144.499969"/>
      <use xlink:href="#STIXGeneral-Regular-69" x="194.499954"/>
      <use xlink:href="#STIXGeneral-Regular-6e" x="222.299942"/>
      <use xlink:href="#STIXGeneral-Regular-67" x="272.299927"/>
      <use xlink:href="#STIXGeneral-Regular-20" x="322.299911"/>
      <use xlink:href="#STIXGeneral-Regular-65" x="347.299896"/>
      <use xlink:href="#STIXGeneral-Regular-6e" x="391.69989"/>
      <use xlink:href="#STIXGeneral-Regular-65" x="441.699875"/>
      <use xlink:href="#STIXGeneral-Regular-72" x="486.099869"/>
      <use xlink:href="#STIXGeneral-Regular-67" x="519.399857"/>
      <use xlink:href="#STIXGeneral-Regular-79" x="569.399841"/>
     </g>
    </g>
   </g>
   <g id="matplotlib.axis_2">
    <g id="ytick_1">
     <g id="line2d_3">
      <defs>
       <path id="m58be34ff08" d="M 0 0 
L 3.5 0 
" style="stroke: #000000; stroke-width: 2.83465"/>
      </defs>
      <g>
       <use xlink:href="#m58be34ff08" x="75.6525" y="219.767366" style="stroke: #000000; stroke-width: 2.83465"/>
      </g>
     </g>
     <g id="text_4">
      <!-- 0.0 -->
      <g transform="translate(36.715 229.448448) scale(0.2835 -0.2835)">
       <defs>
        <path id="STIXGeneral-Regular-2e" d="M 1158 275 
Q 1158 134 1052 32 
Q 947 -70 800 -70 
Q 653 -70 550 32 
Q 448 134 448 281 
Q 448 429 553 534 
Q 659 640 806 640 
Q 947 640 1052 531 
Q 1158 422 1158 275 
z
" transform="scale(0.015625)"/>
       </defs>
       <use xlink:href="#STIXGeneral-Regular-30"/>
       <use xlink:href="#STIXGeneral-Regular-2e" x="49.999985"/>
       <use xlink:href="#STIXGeneral-Regular-30" x="74.999969"/>
      </g>
     </g>
    </g>
    <g id="ytick_2">
     <g id="line2d_4">
      <g>
       <use xlink:href="#m58be34ff08" x="75.6525" y="118.438516" style="stroke: #000000; stroke-width: 2.83465"/>
      </g>
     </g>
     <g id="text_5">
      <!-- 0.5 -->
      <g transform="translate(36.715 128.119598) scale(0.2835 -0.2835)">
       <defs>
        <path id="STIXGeneral-Regular-35" d="M 2803 4358 
L 2573 3814 
Q 2534 3731 2400 3731 
L 1158 3731 
L 902 3187 
Q 1606 3053 1920 2896 
Q 2234 2739 2502 2368 
Q 2726 2061 2726 1555 
Q 2726 1094 2576 780 
Q 2426 467 2099 224 
Q 1664 -90 1011 -90 
Q 646 -90 422 19 
Q 198 128 198 307 
Q 198 550 486 550 
Q 717 550 960 352 
Q 1210 147 1414 147 
Q 1747 147 2012 480 
Q 2278 813 2278 1229 
Q 2278 1843 1850 2189 
Q 1293 2637 486 2637 
Q 410 2637 410 2688 
L 416 2720 
L 1114 4237 
L 2438 4237 
Q 2547 4237 2608 4269 
Q 2669 4301 2746 4403 
L 2803 4358 
z
" transform="scale(0.015625)"/>
       </defs>
       <use xlink:href="#STIXGeneral-Regular-30"/>
       <use xlink:href="#STIXGeneral-Regular-2e" x="49.999985"/>
       <use xlink:href="#STIXGeneral-Regular-35" x="74.999969"/>
      </g>
     </g>
    </g>
    <g id="ytick_3">
     <g id="line2d_5">
      <g>
       <use xlink:href="#m58be34ff08" x="75.6525" y="17.109665" style="stroke: #000000; stroke-width: 2.83465"/>
      </g>
     </g>
     <g id="text_6">
      <!-- 1.0 -->
      <g transform="translate(36.715 26.790747) scale(0.2835 -0.2835)">
       <use xlink:href="#STIXGeneral-Regular-31"/>
       <use xlink:href="#STIXGeneral-Regular-2e" x="49.999985"/>
       <use xlink:href="#STIXGeneral-Regular-30" x="74.999969"/>
      </g>
     </g>
    </g>
    <g id="text_7">
     <!-- % of bound linkers -->
     <g transform="translate(26.562164 223.466843) rotate(-90) scale(0.2835 -0.2835)">
      <defs>
       <path id="STIXGeneral-Regular-25" d="M 4390 1363 
Q 4390 781 4070 329 
Q 3750 -122 3341 -122 
Q 3014 -122 2790 134 
Q 2566 390 2566 762 
Q 2566 1274 2940 1693 
Q 3315 2112 3776 2112 
Q 4070 2112 4230 1917 
Q 4390 1722 4390 1363 
z
M 4243 1376 
Q 4243 1626 4131 1779 
Q 4019 1933 3840 1933 
Q 3654 1933 3526 1786 
Q 3315 1562 3171 1187 
Q 3027 813 3027 486 
Q 3027 301 3129 176 
Q 3232 51 3386 51 
Q 3718 51 3980 457 
Q 4243 864 4243 1376 
z
M 3974 4518 
L 1222 -115 
L 922 -115 
L 3443 4096 
Q 3264 3891 3094 3811 
Q 2925 3731 2669 3731 
Q 2445 3731 2182 3821 
Q 2208 3674 2208 3539 
Q 2208 3206 2067 2873 
Q 1926 2541 1696 2323 
Q 1453 2086 1146 2086 
Q 826 2086 608 2339 
Q 390 2592 390 2963 
Q 390 3507 761 3916 
Q 1133 4326 1626 4326 
Q 1792 4326 2010 4147 
Q 2310 3898 2624 3898 
Q 2918 3898 3084 3994 
Q 3251 4090 3693 4518 
L 3974 4518 
z
M 2054 3642 
Q 2054 3782 2025 3833 
Q 1997 3885 1894 3936 
Q 1747 4006 1613 4154 
Q 1414 4058 1331 3984 
Q 1248 3910 1152 3750 
Q 845 3264 845 2707 
Q 845 2509 944 2384 
Q 1043 2259 1210 2259 
Q 1549 2259 1801 2675 
Q 2054 3091 2054 3642 
z
" transform="scale(0.015625)"/>
       <path id="STIXGeneral-Regular-6f" d="M 3008 1478 
Q 3008 806 2608 371 
Q 2208 -64 1568 -64 
Q 979 -64 582 368 
Q 186 800 186 1459 
Q 186 2125 582 2534 
Q 979 2944 1626 2944 
Q 2221 2944 2614 2537 
Q 3008 2131 3008 1478 
z
M 2432 1306 
Q 2432 2035 2112 2445 
Q 1856 2765 1504 2765 
Q 1171 2765 966 2493 
Q 762 2221 762 1747 
Q 762 928 1101 435 
Q 1318 115 1677 115 
Q 2029 115 2230 432 
Q 2432 749 2432 1306 
z
" transform="scale(0.015625)"/>
       <path id="STIXGeneral-Regular-66" d="M 134 2880 
L 659 2880 
Q 666 3264 710 3478 
Q 755 3693 883 3910 
Q 1152 4371 1786 4371 
Q 2074 4371 2262 4259 
Q 2451 4147 2451 3974 
Q 2451 3866 2374 3789 
Q 2298 3712 2182 3712 
Q 2029 3712 1894 3942 
Q 1741 4192 1555 4192 
Q 1197 4192 1197 3622 
L 1197 2880 
L 1978 2880 
L 1978 2675 
L 1197 2675 
L 1197 666 
Q 1197 307 1299 208 
Q 1402 109 1792 96 
L 1792 0 
L 128 0 
L 128 96 
Q 474 115 566 214 
Q 659 314 659 666 
L 659 2675 
L 134 2675 
L 134 2880 
z
" transform="scale(0.015625)"/>
       <path id="STIXGeneral-Regular-62" d="M 979 4358 
L 979 2406 
Q 1082 2650 1315 2797 
Q 1549 2944 1843 2944 
Q 2349 2944 2672 2541 
Q 2995 2138 2995 1536 
Q 2995 832 2566 384 
Q 2138 -64 1498 -64 
Q 1107 -64 774 67 
Q 442 198 442 358 
L 442 3622 
Q 442 3859 384 3926 
Q 326 3994 128 3994 
Q 83 3994 19 3981 
L 19 4090 
L 211 4147 
Q 864 4346 947 4371 
L 979 4358 
z
M 979 2035 
L 979 474 
Q 979 326 1161 233 
Q 1344 141 1600 141 
Q 1978 141 2195 416 
Q 2432 710 2432 1261 
Q 2432 1888 2182 2240 
Q 1971 2541 1613 2541 
Q 1357 2541 1168 2390 
Q 979 2240 979 2035 
z
" transform="scale(0.015625)"/>
       <path id="STIXGeneral-Regular-75" d="M 3072 320 
L 3072 230 
Q 2573 96 2195 -58 
L 2163 -38 
L 2163 486 
L 2150 486 
Q 1747 -64 1235 -64 
Q 870 -64 662 160 
Q 454 384 454 755 
L 454 2362 
Q 454 2598 371 2688 
Q 288 2778 58 2790 
L 58 2880 
L 992 2880 
L 992 813 
Q 992 595 1123 451 
Q 1254 307 1446 307 
Q 1760 307 1984 506 
Q 2067 582 2099 649 
Q 2131 717 2131 877 
L 2131 2355 
Q 2131 2605 2041 2678 
Q 1952 2752 1658 2771 
L 1658 2880 
L 2669 2880 
L 2669 685 
Q 2669 461 2742 390 
Q 2816 320 3034 320 
L 3072 320 
z
" transform="scale(0.015625)"/>
       <path id="STIXGeneral-Regular-6c" d="M 1645 0 
L 134 0 
L 134 96 
Q 435 122 531 221 
Q 627 320 627 589 
L 627 3590 
Q 627 3821 569 3910 
Q 512 4000 358 4000 
Q 224 4000 122 3987 
L 122 4090 
Q 730 4237 1133 4371 
L 1165 4346 
L 1165 557 
Q 1165 288 1254 201 
Q 1344 115 1645 96 
L 1645 0 
z
" transform="scale(0.015625)"/>
       <path id="STIXGeneral-Regular-6b" d="M 3232 0 
L 1837 0 
L 1837 96 
L 1958 96 
Q 2093 96 2093 192 
Q 2093 250 2022 339 
L 1062 1606 
L 1062 429 
Q 1062 262 1142 185 
Q 1222 109 1414 102 
L 1542 96 
L 1542 0 
L 45 0 
L 45 96 
Q 390 154 457 214 
Q 525 275 525 525 
L 525 3610 
Q 525 3840 467 3920 
Q 410 4000 250 4000 
Q 211 4000 45 3987 
L 45 4090 
L 237 4141 
Q 621 4243 1037 4371 
L 1062 4358 
L 1062 1670 
L 1939 2451 
Q 2086 2586 2086 2675 
Q 2086 2739 2019 2761 
Q 1952 2784 1766 2790 
L 1766 2880 
L 3072 2880 
L 3072 2784 
Q 2752 2784 2505 2646 
Q 2259 2509 1690 1978 
L 1504 1805 
L 2483 563 
Q 2829 122 3232 96 
L 3232 0 
z
" transform="scale(0.015625)"/>
       <path id="STIXGeneral-Regular-73" d="M 998 1926 
L 1664 1523 
Q 1984 1331 2105 1164 
Q 2227 998 2227 736 
Q 2227 416 1961 176 
Q 1696 -64 1331 -64 
Q 1030 -64 864 -6 
Q 691 51 570 51 
Q 461 51 416 -26 
L 333 -26 
L 333 979 
L 435 979 
Q 538 512 730 294 
Q 922 77 1248 77 
Q 1485 77 1632 211 
Q 1779 346 1779 550 
Q 1779 845 1440 1030 
L 1094 1222 
Q 326 1651 326 2150 
Q 326 2522 566 2730 
Q 806 2938 1210 2938 
Q 1491 2938 1638 2867 
Q 1754 2816 1818 2816 
Q 1862 2816 1920 2880 
L 1990 2880 
L 2022 2010 
L 1926 2010 
Q 1818 2445 1654 2621 
Q 1491 2797 1203 2797 
Q 986 2797 854 2688 
Q 723 2579 723 2362 
Q 723 2253 796 2128 
Q 870 2003 998 1926 
z
" transform="scale(0.015625)"/>
      </defs>
      <use xlink:href="#STIXGeneral-Regular-25"/>
      <use xlink:href="#STIXGeneral-Regular-20" x="74.699982"/>
      <use xlink:href="#STIXGeneral-Regular-6f" x="99.699966"/>
      <use xlink:href="#STIXGeneral-Regular-66" x="149.699951"/>
      <use xlink:href="#STIXGeneral-Regular-20" x="182.999939"/>
      <use xlink:href="#STIXGeneral-Regular-62" x="207.999924"/>
      <use xlink:href="#STIXGeneral-Regular-6f" x="257.999908"/>
      <use xlink:href="#STIXGeneral-Regular-75" x="307.999893"/>
      <use xlink:href="#STIXGeneral-Regular-6e" x="357.999878"/>
      <use xlink:href="#STIXGeneral-Regular-64" x="407.999863"/>
      <use xlink:href="#STIXGeneral-Regular-20" x="457.999847"/>
      <use xlink:href="#STIXGeneral-Regular-6c" x="482.999832"/>
      <use xlink:href="#STIXGeneral-Regular-69" x="510.79982"/>
      <use xlink:href="#STIXGeneral-Regular-6e" x="538.599808"/>
      <use xlink:href="#STIXGeneral-Regular-6b" x="588.599792"/>
      <use xlink:href="#STIXGeneral-Regular-65" x="638.599777"/>
      <use xlink:href="#STIXGeneral-Regular-72" x="682.999771"/>
      <use xlink:href="#STIXGeneral-Regular-73" x="716.299759"/>
     </g>
    </g>
   </g>
   <g id="line2d_6">
    <path d="M 90.642409 17.417999 
L 106.43178 17.920617 
L 122.201164 18.334272 
L 137.990535 20.873421 
L 153.75992 20.672658 
L 169.549291 36.001519 
L 185.318675 33.762774 
L 201.108046 44.996351 
L 216.87743 105.042449 
L 232.666801 133.54469 
L 248.436185 138.941563 
L 264.225556 161.235998 
L 279.994941 165.193649 
L 295.764325 168.034772 
L 311.533709 168.534654 
L 327.32308 168.486387 
L 343.092465 168.865753 
L 358.881836 169.020161 
L 374.65122 169.070161 
L 390.440591 169.091246 
" clip-path="url(#p033e1a8c58)" style="fill: none; stroke: #fde725; stroke-width: 2.83465; stroke-linecap: square"/>
   </g>
   <g id="line2d_7">
    <path d="M 90.642409 17.309103 
L 106.43178 17.384163 
L 122.201164 17.969144 
L 137.990535 18.768946 
L 153.75992 20.454813 
L 169.549291 23.749302 
L 185.318675 32.588211 
L 201.108046 35.035389 
L 216.87743 79.735097 
L 232.666801 150.157324 
L 248.436185 180.783758 
L 264.225556 191.139768 
L 279.994941 195.049549 
L 295.764325 192.802509 
L 311.533709 196.842826 
L 327.32308 197.063772 
L 343.092465 197.15989 
L 358.881836 197.209406 
L 374.65122 197.232071 
L 390.440591 197.240861 
" clip-path="url(#p033e1a8c58)" style="fill: none; stroke: #7cd250; stroke-width: 2.83465; stroke-linecap: square"/>
   </g>
   <g id="line2d_8">
    <path d="M 90.642409 17.212749 
L 106.43178 17.337227 
L 122.201164 17.715182 
L 137.990535 18.260902 
L 153.75992 18.376416 
L 169.549291 19.891956 
L 185.318675 24.004081 
L 201.108046 28.542839 
L 216.87743 47.82573 
L 232.666801 51.453953 
L 248.436185 75.289566 
L 264.225556 183.075413 
L 279.994941 212.062369 
L 295.764325 214.262409 
L 311.533709 215.142884 
L 327.32308 215.42115 
L 343.092465 215.54656 
L 358.881836 215.592314 
L 374.65122 215.613204 
L 390.440591 215.623064 
" clip-path="url(#p033e1a8c58)" style="fill: none; stroke: #24878e; stroke-width: 2.83465; stroke-linecap: square"/>
   </g>
   <g id="line2d_9">
    <path d="M 90.642409 17.1288 
L 106.43178 17.178426 
L 122.201164 17.20795 
L 137.990535 17.4076 
L 153.75992 17.617924 
L 169.549291 18.128821 
L 185.318675 19.604683 
L 201.108046 21.331023 
L 216.87743 27.825399 
L 232.666801 41.588015 
L 248.436185 46.035584 
L 264.225556 65.539106 
L 279.994941 140.7509 
L 295.764325 207.960249 
L 311.533709 213.893402 
L 327.32308 215.042822 
L 343.092465 215.438385 
L 358.881836 215.587253 
L 374.65122 215.65418 
L 390.440591 215.688123 
" clip-path="url(#p033e1a8c58)" style="fill: none; stroke: #46337f; stroke-width: 2.83465; stroke-linecap: square"/>
   </g>
   <g id="line2d_10">
    <path d="M 90.642409 17.147696 
L 106.43178 17.208072 
L 122.201164 17.237026 
L 137.990535 17.510339 
L 153.75992 17.730503 
L 169.549291 18.538976 
L 185.318675 20.216379 
L 201.108046 25.255463 
L 216.87743 32.028626 
L 232.666801 46.082983 
L 248.436185 50.421305 
L 264.225556 83.199881 
L 279.994941 184.234514 
L 295.764325 211.945963 
L 311.533709 214.271218 
L 327.32308 215.234769 
L 343.092465 215.49868 
L 358.881836 215.621196 
L 374.65122 215.672939 
L 390.440591 215.694513 
" clip-path="url(#p033e1a8c58)" style="fill: none; stroke: #3e4989; stroke-width: 2.83465; stroke-linecap: square"/>
   </g>
   <g id="line2d_11">
    <path d="M 90.642409 17.157977 
L 106.43178 17.234336 
L 122.201164 17.295254 
L 137.990535 17.620432 
L 153.75992 17.906943 
L 169.549291 19.194961 
L 185.318675 22.756776 
L 201.108046 24.404221 
L 216.87743 31.631179 
L 232.666801 34.984282 
L 248.436185 56.364784 
L 264.225556 143.882092 
L 279.994941 208.154305 
L 295.764325 213.737629 
L 311.533709 214.986004 
L 327.32308 215.394361 
L 343.092465 215.569964 
L 358.881836 215.652597 
L 374.65122 215.686578 
L 390.440591 215.701821 
" clip-path="url(#p033e1a8c58)" style="fill: none; stroke: #2f6b8e; stroke-width: 2.83465; stroke-linecap: square"/>
   </g>
   <g id="line2d_12">
    <path d="M 90.642409 17.194016 
L 106.43178 17.217174 
L 122.201164 17.42514 
L 137.990535 18.000973 
L 153.75992 18.57231 
L 169.549291 19.731266 
L 185.318675 22.732522 
L 201.108046 29.249601 
L 216.87743 33.894438 
L 232.666801 44.867266 
L 248.436185 67.042166 
L 264.225556 188.423162 
L 279.994941 211.801062 
L 295.764325 214.415561 
L 311.533709 215.188749 
L 327.32308 215.504696 
L 343.092465 215.609967 
L 358.881836 215.674128 
L 374.65122 215.695784 
L 390.440591 215.7048 
" clip-path="url(#p033e1a8c58)" style="fill: none; stroke: #24868e; stroke-width: 2.83465; stroke-linecap: square"/>
   </g>
   <g id="patch_3">
    <path d="M 75.6525 225.6336 
L 75.6525 7.2 
" style="fill: none; stroke: #000000; stroke-width: 2.83465; stroke-linejoin: miter; stroke-linecap: square"/>
   </g>
   <g id="patch_4">
    <path d="M 405.4305 225.6336 
L 405.4305 7.2 
" style="fill: none; stroke: #000000; stroke-width: 2.83465; stroke-linejoin: miter; stroke-linecap: square"/>
   </g>
   <g id="patch_5">
    <path d="M 75.6525 225.6336 
L 405.4305 225.6336 
" style="fill: none; stroke: #000000; stroke-width: 2.83465; stroke-linejoin: miter; stroke-linecap: square"/>
   </g>
   <g id="patch_6">
    <path d="M 75.6525 7.2 
L 405.4305 7.2 
" style="fill: none; stroke: #000000; stroke-width: 2.83465; stroke-linejoin: miter; stroke-linecap: square"/>
   </g>
   <g id="legend_1">
    <g id="patch_7">
     <path d="M 441.7644 311.089852 
L 674.2344 311.089852 
Q 679.9044 311.089852 679.9044 305.419852 
L 679.9044 27.045 
Q 679.9044 21.375 674.2344 21.375 
L 441.7644 21.375 
Q 436.0944 21.375 436.0944 27.045 
L 436.0944 305.419852 
Q 436.0944 311.089852 441.7644 311.089852 
z
" style="fill: #ffffff; opacity: 0.8; stroke: #cccccc; stroke-linejoin: miter"/>
    </g>
    <g id="line2d_13">
     <path d="M 447.4344 42.6375 
L 475.7844 42.6375 
L 504.1344 42.6375 
" style="fill: none; stroke: #fde725; stroke-width: 2.83465; stroke-linecap: square"/>
    </g>
    <g id="text_8">
     <!-- 0.0004 4 -->
     <g transform="translate(526.8144 52.56) scale(0.2835 -0.2835)">
      <defs>
       <path id="STIXGeneral-Regular-34" d="M 3027 1069 
L 2368 1069 
L 2368 0 
L 1869 0 
L 1869 1069 
L 77 1069 
L 77 1478 
L 2086 4326 
L 2368 4326 
L 2368 1478 
L 3027 1478 
L 3027 1069 
z
M 1869 1478 
L 1869 3674 
L 333 1478 
L 1869 1478 
z
" transform="scale(0.015625)"/>
      </defs>
      <use xlink:href="#STIXGeneral-Regular-30"/>
      <use xlink:href="#STIXGeneral-Regular-2e" x="49.999985"/>
      <use xlink:href="#STIXGeneral-Regular-30" x="74.999969"/>
      <use xlink:href="#STIXGeneral-Regular-30" x="124.999954"/>
      <use xlink:href="#STIXGeneral-Regular-30" x="174.999939"/>
      <use xlink:href="#STIXGeneral-Regular-34" x="224.999924"/>
      <use xlink:href="#STIXGeneral-Regular-20" x="274.999908"/>
      <use xlink:href="#STIXGeneral-Regular-34" x="299.999893"/>
     </g>
    </g>
    <g id="line2d_14">
     <path d="M 447.4344 82.810336 
L 475.7844 82.810336 
L 504.1344 82.810336 
" style="fill: none; stroke: #7cd250; stroke-width: 2.83465; stroke-linecap: square"/>
    </g>
    <g id="text_9">
     <!-- 0.0009 9 -->
     <g transform="translate(526.8144 92.732836) scale(0.2835 -0.2835)">
      <defs>
       <path id="STIXGeneral-Regular-39" d="M 378 -141 
L 358 -13 
Q 1094 115 1603 608 
Q 2112 1101 2304 1882 
Q 1933 1517 1344 1517 
Q 826 1517 509 1875 
Q 192 2234 192 2816 
Q 192 3462 573 3894 
Q 954 4326 1523 4326 
Q 2131 4326 2528 3840 
Q 2938 3328 2938 2522 
Q 2938 1958 2742 1462 
Q 2547 966 2170 621 
Q 1773 262 1395 105 
Q 1018 -51 378 -141 
z
M 2317 2272 
L 2317 2522 
Q 2317 4147 1472 4147 
Q 1171 4147 1005 3930 
Q 909 3802 845 3546 
Q 781 3290 781 3034 
Q 781 2464 995 2128 
Q 1210 1792 1568 1792 
Q 1824 1792 2070 1917 
Q 2317 2042 2317 2272 
z
" transform="scale(0.015625)"/>
      </defs>
      <use xlink:href="#STIXGeneral-Regular-30"/>
      <use xlink:href="#STIXGeneral-Regular-2e" x="49.999985"/>
      <use xlink:href="#STIXGeneral-Regular-30" x="74.999969"/>
      <use xlink:href="#STIXGeneral-Regular-30" x="124.999954"/>
      <use xlink:href="#STIXGeneral-Regular-30" x="174.999939"/>
      <use xlink:href="#STIXGeneral-Regular-39" x="224.999924"/>
      <use xlink:href="#STIXGeneral-Regular-20" x="274.999908"/>
      <use xlink:href="#STIXGeneral-Regular-39" x="299.999893"/>
     </g>
    </g>
    <g id="line2d_15">
     <path d="M 447.4344 122.983172 
L 475.7844 122.983172 
L 504.1344 122.983172 
" style="fill: none; stroke: #24878e; stroke-width: 2.83465; stroke-linecap: square"/>
    </g>
    <g id="text_10">
     <!-- 0.0049 49 -->
     <g transform="translate(526.8144 132.905672) scale(0.2835 -0.2835)">
      <use xlink:href="#STIXGeneral-Regular-30"/>
      <use xlink:href="#STIXGeneral-Regular-2e" x="49.999985"/>
      <use xlink:href="#STIXGeneral-Regular-30" x="74.999969"/>
      <use xlink:href="#STIXGeneral-Regular-30" x="124.999954"/>
      <use xlink:href="#STIXGeneral-Regular-34" x="174.999939"/>
      <use xlink:href="#STIXGeneral-Regular-39" x="224.999924"/>
      <use xlink:href="#STIXGeneral-Regular-20" x="274.999908"/>
      <use xlink:href="#STIXGeneral-Regular-34" x="299.999893"/>
      <use xlink:href="#STIXGeneral-Regular-39" x="349.999878"/>
     </g>
    </g>
    <g id="line2d_16">
     <path d="M 447.4344 163.156008 
L 475.7844 163.156008 
L 504.1344 163.156008 
" style="fill: none; stroke: #46337f; stroke-width: 2.83465; stroke-linecap: square"/>
    </g>
    <g id="text_11">
     <!-- 0.05 1000 -->
     <g transform="translate(526.8144 173.078508) scale(0.2835 -0.2835)">
      <use xlink:href="#STIXGeneral-Regular-30"/>
      <use xlink:href="#STIXGeneral-Regular-2e" x="49.999985"/>
      <use xlink:href="#STIXGeneral-Regular-30" x="74.999969"/>
      <use xlink:href="#STIXGeneral-Regular-35" x="124.999954"/>
      <use xlink:href="#STIXGeneral-Regular-20" x="174.999939"/>
      <use xlink:href="#STIXGeneral-Regular-31" x="199.999924"/>
      <use xlink:href="#STIXGeneral-Regular-30" x="249.999908"/>
      <use xlink:href="#STIXGeneral-Regular-30" x="299.999893"/>
      <use xlink:href="#STIXGeneral-Regular-30" x="349.999878"/>
     </g>
    </g>
    <g id="line2d_17">
     <path d="M 447.4344 203.328844 
L 475.7844 203.328844 
L 504.1344 203.328844 
" style="fill: none; stroke: #3e4989; stroke-width: 2.83465; stroke-linecap: square"/>
    </g>
    <g id="text_12">
     <!-- 0.025 2000 -->
     <g transform="translate(526.8144 213.251344) scale(0.2835 -0.2835)">
      <defs>
       <path id="STIXGeneral-Regular-32" d="M 3034 877 
L 2688 0 
L 186 0 
L 186 77 
L 1325 1286 
Q 1773 1754 1965 2144 
Q 2157 2534 2157 2950 
Q 2157 3379 1920 3616 
Q 1683 3853 1267 3853 
Q 922 3853 720 3673 
Q 518 3494 326 3021 
L 192 3053 
Q 301 3648 630 3987 
Q 960 4326 1523 4326 
Q 2054 4326 2380 4006 
Q 2707 3686 2707 3200 
Q 2707 2477 1888 1613 
L 832 486 
L 2330 486 
Q 2541 486 2665 569 
Q 2790 653 2944 915 
L 3034 877 
z
" transform="scale(0.015625)"/>
      </defs>
      <use xlink:href="#STIXGeneral-Regular-30"/>
      <use xlink:href="#STIXGeneral-Regular-2e" x="49.999985"/>
      <use xlink:href="#STIXGeneral-Regular-30" x="74.999969"/>
      <use xlink:href="#STIXGeneral-Regular-32" x="124.999954"/>
      <use xlink:href="#STIXGeneral-Regular-35" x="174.999939"/>
      <use xlink:href="#STIXGeneral-Regular-20" x="224.999924"/>
      <use xlink:href="#STIXGeneral-Regular-32" x="249.999908"/>
      <use xlink:href="#STIXGeneral-Regular-30" x="299.999893"/>
      <use xlink:href="#STIXGeneral-Regular-30" x="349.999878"/>
      <use xlink:href="#STIXGeneral-Regular-30" x="399.999863"/>
     </g>
    </g>
    <g id="line2d_18">
     <path d="M 447.4344 243.50168 
L 475.7844 243.50168 
L 504.1344 243.50168 
" style="fill: none; stroke: #2f6b8e; stroke-width: 2.83465; stroke-linecap: square"/>
    </g>
    <g id="text_13">
     <!-- 0.01 5000 -->
     <g transform="translate(526.8144 253.42418) scale(0.2835 -0.2835)">
      <use xlink:href="#STIXGeneral-Regular-30"/>
      <use xlink:href="#STIXGeneral-Regular-2e" x="49.999985"/>
      <use xlink:href="#STIXGeneral-Regular-30" x="74.999969"/>
      <use xlink:href="#STIXGeneral-Regular-31" x="124.999954"/>
      <use xlink:href="#STIXGeneral-Regular-20" x="174.999939"/>
      <use xlink:href="#STIXGeneral-Regular-35" x="199.999924"/>
      <use xlink:href="#STIXGeneral-Regular-30" x="249.999908"/>
      <use xlink:href="#STIXGeneral-Regular-30" x="299.999893"/>
      <use xlink:href="#STIXGeneral-Regular-30" x="349.999878"/>
     </g>
    </g>
    <g id="line2d_19">
     <path d="M 447.4344 283.674516 
L 475.7844 283.674516 
L 504.1344 283.674516 
" style="fill: none; stroke: #24868e; stroke-width: 2.83465; stroke-linecap: square"/>
    </g>
    <g id="text_14">
     <!-- 0.005 10000 -->
     <g transform="translate(526.8144 293.597016) scale(0.2835 -0.2835)">
      <use xlink:href="#STIXGeneral-Regular-30"/>
      <use xlink:href="#STIXGeneral-Regular-2e" x="49.999985"/>
      <use xlink:href="#STIXGeneral-Regular-30" x="74.999969"/>
      <use xlink:href="#STIXGeneral-Regular-30" x="124.999954"/>
      <use xlink:href="#STIXGeneral-Regular-35" x="174.999939"/>
      <use xlink:href="#STIXGeneral-Regular-20" x="224.999924"/>
      <use xlink:href="#STIXGeneral-Regular-31" x="249.999908"/>
      <use xlink:href="#STIXGeneral-Regular-30" x="299.999893"/>
      <use xlink:href="#STIXGeneral-Regular-30" x="349.999878"/>
      <use xlink:href="#STIXGeneral-Regular-30" x="399.999863"/>
      <use xlink:href="#STIXGeneral-Regular-30" x="449.999847"/>
     </g>
    </g>
   </g>
  </g>
 </g>
 <defs>
  <clipPath id="p033e1a8c58">
   <rect x="75.6525" y="7.2" width="329.778" height="218.4336"/>
  </clipPath>
 </defs>
</svg>
